<mxfile host="Electron" agent="Mozilla/5.0 (Windows NT 10.0; Win64; x64) AppleWebKit/537.36 (KHTML, like Gecko) draw.io/28.2.5 Chrome/138.0.7204.251 Electron/37.6.1 Safari/537.36" version="28.2.5">
  <diagram name="Página-1" id="-KLtLfrGAlQjvRgY1Kfd">
    <mxGraphModel dx="3021" dy="1294" grid="1" gridSize="10" guides="1" tooltips="1" connect="1" arrows="1" fold="1" page="1" pageScale="1" pageWidth="827" pageHeight="1169" math="0" shadow="0">
      <root>
        <mxCell id="0" />
        <mxCell id="1" parent="0" />
        <mxCell id="Pmv7R0sQW_mxrgGP7tfX-1" value="PACIENTE" style="whiteSpace=wrap;html=1;align=center;" vertex="1" parent="1">
          <mxGeometry x="90" y="210" width="100" height="40" as="geometry" />
        </mxCell>
        <mxCell id="Pmv7R0sQW_mxrgGP7tfX-2" value="MÉDICO" style="whiteSpace=wrap;html=1;align=center;" vertex="1" parent="1">
          <mxGeometry x="1070" y="210" width="100" height="40" as="geometry" />
        </mxCell>
        <mxCell id="Pmv7R0sQW_mxrgGP7tfX-4" value="EXAME" style="whiteSpace=wrap;html=1;align=center;" vertex="1" parent="1">
          <mxGeometry x="570" y="210" width="100" height="40" as="geometry" />
        </mxCell>
        <mxCell id="Pmv7R0sQW_mxrgGP7tfX-6" value="LAUDO" style="whiteSpace=wrap;html=1;align=center;" vertex="1" parent="1">
          <mxGeometry x="560" y="500" width="100" height="40" as="geometry" />
        </mxCell>
        <mxCell id="Pmv7R0sQW_mxrgGP7tfX-7" value="realiza" style="shape=rhombus;perimeter=rhombusPerimeter;whiteSpace=wrap;html=1;align=center;" vertex="1" parent="1">
          <mxGeometry x="350" y="200" width="120" height="60" as="geometry" />
        </mxCell>
        <mxCell id="Pmv7R0sQW_mxrgGP7tfX-8" value="" style="edgeStyle=entityRelationEdgeStyle;fontSize=12;html=1;endArrow=ERoneToMany;rounded=0;entryX=0;entryY=0.5;entryDx=0;entryDy=0;exitX=1;exitY=0.5;exitDx=0;exitDy=0;" edge="1" parent="1" source="Pmv7R0sQW_mxrgGP7tfX-7" target="Pmv7R0sQW_mxrgGP7tfX-4">
          <mxGeometry width="100" height="100" relative="1" as="geometry">
            <mxPoint x="290" y="420" as="sourcePoint" />
            <mxPoint x="390" y="320" as="targetPoint" />
          </mxGeometry>
        </mxCell>
        <mxCell id="Pmv7R0sQW_mxrgGP7tfX-9" value="(1, n)" style="edgeLabel;html=1;align=center;verticalAlign=middle;resizable=0;points=[];" vertex="1" connectable="0" parent="Pmv7R0sQW_mxrgGP7tfX-8">
          <mxGeometry x="-0.0286" relative="1" as="geometry">
            <mxPoint as="offset" />
          </mxGeometry>
        </mxCell>
        <mxCell id="Pmv7R0sQW_mxrgGP7tfX-10" value="solicita" style="shape=rhombus;perimeter=rhombusPerimeter;whiteSpace=wrap;html=1;align=center;" vertex="1" parent="1">
          <mxGeometry x="810" y="200" width="120" height="60" as="geometry" />
        </mxCell>
        <mxCell id="Pmv7R0sQW_mxrgGP7tfX-11" value="" style="edgeStyle=entityRelationEdgeStyle;fontSize=12;html=1;endArrow=ERoneToMany;rounded=0;entryX=1;entryY=0.5;entryDx=0;entryDy=0;exitX=0;exitY=0.5;exitDx=0;exitDy=0;" edge="1" parent="1" source="Pmv7R0sQW_mxrgGP7tfX-2" target="Pmv7R0sQW_mxrgGP7tfX-10">
          <mxGeometry width="100" height="100" relative="1" as="geometry">
            <mxPoint x="680" y="585" as="sourcePoint" />
            <mxPoint x="680" y="370" as="targetPoint" />
          </mxGeometry>
        </mxCell>
        <mxCell id="Pmv7R0sQW_mxrgGP7tfX-12" value="(1, n)" style="edgeLabel;html=1;align=center;verticalAlign=middle;resizable=0;points=[];" vertex="1" connectable="0" parent="Pmv7R0sQW_mxrgGP7tfX-11">
          <mxGeometry x="-0.0286" relative="1" as="geometry">
            <mxPoint as="offset" />
          </mxGeometry>
        </mxCell>
        <mxCell id="Pmv7R0sQW_mxrgGP7tfX-13" value="" style="edgeStyle=entityRelationEdgeStyle;fontSize=12;html=1;endArrow=ERmandOne;startArrow=ERmandOne;rounded=0;entryX=0;entryY=0.5;entryDx=0;entryDy=0;exitX=1;exitY=0.5;exitDx=0;exitDy=0;" edge="1" parent="1" source="Pmv7R0sQW_mxrgGP7tfX-1" target="Pmv7R0sQW_mxrgGP7tfX-7">
          <mxGeometry width="100" height="100" relative="1" as="geometry">
            <mxPoint x="190" y="360" as="sourcePoint" />
            <mxPoint x="290" y="260" as="targetPoint" />
          </mxGeometry>
        </mxCell>
        <mxCell id="Pmv7R0sQW_mxrgGP7tfX-14" value="(1, 1)" style="edgeLabel;html=1;align=center;verticalAlign=middle;resizable=0;points=[];" vertex="1" connectable="0" parent="Pmv7R0sQW_mxrgGP7tfX-13">
          <mxGeometry x="0.025" y="-2" relative="1" as="geometry">
            <mxPoint as="offset" />
          </mxGeometry>
        </mxCell>
        <mxCell id="Pmv7R0sQW_mxrgGP7tfX-15" value="" style="edgeStyle=entityRelationEdgeStyle;fontSize=12;html=1;endArrow=ERmandOne;startArrow=ERmandOne;rounded=0;entryX=0;entryY=0.5;entryDx=0;entryDy=0;exitX=1;exitY=0.5;exitDx=0;exitDy=0;" edge="1" parent="1" source="Pmv7R0sQW_mxrgGP7tfX-4" target="Pmv7R0sQW_mxrgGP7tfX-10">
          <mxGeometry width="100" height="100" relative="1" as="geometry">
            <mxPoint x="640" y="300" as="sourcePoint" />
            <mxPoint x="800" y="300" as="targetPoint" />
          </mxGeometry>
        </mxCell>
        <mxCell id="Pmv7R0sQW_mxrgGP7tfX-16" value="(1, 1)" style="edgeLabel;html=1;align=center;verticalAlign=middle;resizable=0;points=[];" vertex="1" connectable="0" parent="Pmv7R0sQW_mxrgGP7tfX-15">
          <mxGeometry x="0.025" y="-2" relative="1" as="geometry">
            <mxPoint as="offset" />
          </mxGeometry>
        </mxCell>
        <mxCell id="Pmv7R0sQW_mxrgGP7tfX-18" value="possui" style="shape=rhombus;perimeter=rhombusPerimeter;whiteSpace=wrap;html=1;align=center;" vertex="1" parent="1">
          <mxGeometry x="560" y="350" width="120" height="60" as="geometry" />
        </mxCell>
        <mxCell id="Pmv7R0sQW_mxrgGP7tfX-19" value="" style="edgeStyle=entityRelationEdgeStyle;fontSize=12;html=1;endArrow=ERmandOne;startArrow=ERmandOne;rounded=0;entryX=0.5;entryY=1;entryDx=0;entryDy=0;exitX=0.5;exitY=0;exitDx=0;exitDy=0;" edge="1" parent="1" source="Pmv7R0sQW_mxrgGP7tfX-18" target="Pmv7R0sQW_mxrgGP7tfX-4">
          <mxGeometry width="100" height="100" relative="1" as="geometry">
            <mxPoint x="340" y="350" as="sourcePoint" />
            <mxPoint x="500" y="350" as="targetPoint" />
          </mxGeometry>
        </mxCell>
        <mxCell id="Pmv7R0sQW_mxrgGP7tfX-20" value="(1, 1)" style="edgeLabel;html=1;align=center;verticalAlign=middle;resizable=0;points=[];" vertex="1" connectable="0" parent="Pmv7R0sQW_mxrgGP7tfX-19">
          <mxGeometry x="0.025" y="-2" relative="1" as="geometry">
            <mxPoint as="offset" />
          </mxGeometry>
        </mxCell>
        <mxCell id="Pmv7R0sQW_mxrgGP7tfX-21" value="" style="edgeStyle=entityRelationEdgeStyle;fontSize=12;html=1;endArrow=ERmandOne;startArrow=ERmandOne;rounded=0;entryX=0.5;entryY=1;entryDx=0;entryDy=0;exitX=0.5;exitY=0;exitDx=0;exitDy=0;" edge="1" parent="1" source="Pmv7R0sQW_mxrgGP7tfX-6" target="Pmv7R0sQW_mxrgGP7tfX-18">
          <mxGeometry width="100" height="100" relative="1" as="geometry">
            <mxPoint x="700" y="560" as="sourcePoint" />
            <mxPoint x="700" y="470" as="targetPoint" />
          </mxGeometry>
        </mxCell>
        <mxCell id="Pmv7R0sQW_mxrgGP7tfX-22" value="(1, 1)" style="edgeLabel;html=1;align=center;verticalAlign=middle;resizable=0;points=[];" vertex="1" connectable="0" parent="Pmv7R0sQW_mxrgGP7tfX-21">
          <mxGeometry x="0.025" y="-2" relative="1" as="geometry">
            <mxPoint as="offset" />
          </mxGeometry>
        </mxCell>
        <mxCell id="Pmv7R0sQW_mxrgGP7tfX-23" value="RADIOLOGISTA" style="whiteSpace=wrap;html=1;align=center;" vertex="1" parent="1">
          <mxGeometry x="1080" y="500" width="100" height="40" as="geometry" />
        </mxCell>
        <mxCell id="Pmv7R0sQW_mxrgGP7tfX-24" value="emite" style="shape=rhombus;perimeter=rhombusPerimeter;whiteSpace=wrap;html=1;align=center;" vertex="1" parent="1">
          <mxGeometry x="827" y="490" width="120" height="60" as="geometry" />
        </mxCell>
        <mxCell id="Pmv7R0sQW_mxrgGP7tfX-25" value="" style="edgeStyle=entityRelationEdgeStyle;fontSize=12;html=1;endArrow=ERmandOne;startArrow=ERmandOne;rounded=0;entryX=1;entryY=0.5;entryDx=0;entryDy=0;exitX=0;exitY=0.5;exitDx=0;exitDy=0;" edge="1" parent="1" source="Pmv7R0sQW_mxrgGP7tfX-24" target="Pmv7R0sQW_mxrgGP7tfX-6">
          <mxGeometry width="100" height="100" relative="1" as="geometry">
            <mxPoint x="837" y="585" as="sourcePoint" />
            <mxPoint x="560" y="625" as="targetPoint" />
          </mxGeometry>
        </mxCell>
        <mxCell id="Pmv7R0sQW_mxrgGP7tfX-26" value="(1, 1)" style="edgeLabel;html=1;align=center;verticalAlign=middle;resizable=0;points=[];" vertex="1" connectable="0" parent="Pmv7R0sQW_mxrgGP7tfX-25">
          <mxGeometry x="0.025" y="-2" relative="1" as="geometry">
            <mxPoint as="offset" />
          </mxGeometry>
        </mxCell>
        <mxCell id="Pmv7R0sQW_mxrgGP7tfX-27" value="" style="edgeStyle=entityRelationEdgeStyle;fontSize=12;html=1;endArrow=ERoneToMany;rounded=0;entryX=1;entryY=0.5;entryDx=0;entryDy=0;exitX=0;exitY=0.5;exitDx=0;exitDy=0;" edge="1" parent="1" source="Pmv7R0sQW_mxrgGP7tfX-23" target="Pmv7R0sQW_mxrgGP7tfX-24">
          <mxGeometry width="100" height="100" relative="1" as="geometry">
            <mxPoint x="1093" y="570" as="sourcePoint" />
            <mxPoint x="850" y="620" as="targetPoint" />
          </mxGeometry>
        </mxCell>
        <mxCell id="Pmv7R0sQW_mxrgGP7tfX-28" value="(1, n)" style="edgeLabel;html=1;align=center;verticalAlign=middle;resizable=0;points=[];" vertex="1" connectable="0" parent="Pmv7R0sQW_mxrgGP7tfX-27">
          <mxGeometry x="-0.0286" relative="1" as="geometry">
            <mxPoint as="offset" />
          </mxGeometry>
        </mxCell>
        <mxCell id="Pmv7R0sQW_mxrgGP7tfX-39" value="" style="edgeStyle=orthogonalEdgeStyle;shape=connector;rounded=0;orthogonalLoop=1;jettySize=auto;html=1;strokeColor=default;align=center;verticalAlign=middle;fontFamily=Helvetica;fontSize=11;fontColor=default;labelBackgroundColor=default;endArrow=none;endFill=0;" edge="1" parent="1" source="Pmv7R0sQW_mxrgGP7tfX-34" target="Pmv7R0sQW_mxrgGP7tfX-35">
          <mxGeometry relative="1" as="geometry" />
        </mxCell>
        <mxCell id="Pmv7R0sQW_mxrgGP7tfX-34" value="CONVÊNIO" style="whiteSpace=wrap;html=1;align=center;" vertex="1" parent="1">
          <mxGeometry x="-340" y="210" width="100" height="40" as="geometry" />
        </mxCell>
        <mxCell id="Pmv7R0sQW_mxrgGP7tfX-35" value="atende" style="shape=rhombus;perimeter=rhombusPerimeter;whiteSpace=wrap;html=1;align=center;" vertex="1" parent="1">
          <mxGeometry x="-130" y="200" width="120" height="60" as="geometry" />
        </mxCell>
        <mxCell id="Pmv7R0sQW_mxrgGP7tfX-36" value="" style="edgeStyle=entityRelationEdgeStyle;fontSize=12;html=1;endArrow=ERoneToMany;rounded=0;strokeColor=default;align=center;verticalAlign=middle;fontFamily=Helvetica;fontColor=default;labelBackgroundColor=default;entryX=0;entryY=0.5;entryDx=0;entryDy=0;exitX=1;exitY=0.5;exitDx=0;exitDy=0;" edge="1" parent="1" source="Pmv7R0sQW_mxrgGP7tfX-35" target="Pmv7R0sQW_mxrgGP7tfX-1">
          <mxGeometry width="100" height="100" relative="1" as="geometry">
            <mxPoint x="-120" y="330" as="sourcePoint" />
            <mxPoint x="90" y="280" as="targetPoint" />
          </mxGeometry>
        </mxCell>
        <mxCell id="Pmv7R0sQW_mxrgGP7tfX-37" value="(1, n)" style="edgeLabel;html=1;align=center;verticalAlign=middle;resizable=0;points=[];fontFamily=Helvetica;fontSize=11;fontColor=default;labelBackgroundColor=default;" vertex="1" connectable="0" parent="Pmv7R0sQW_mxrgGP7tfX-36">
          <mxGeometry x="-0.06" y="2" relative="1" as="geometry">
            <mxPoint as="offset" />
          </mxGeometry>
        </mxCell>
        <mxCell id="Pmv7R0sQW_mxrgGP7tfX-38" value="" style="edgeStyle=entityRelationEdgeStyle;fontSize=12;html=1;endArrow=ERmandOne;startArrow=ERmandOne;rounded=0;strokeColor=default;align=center;verticalAlign=middle;fontFamily=Helvetica;fontColor=default;labelBackgroundColor=default;entryX=1;entryY=0.5;entryDx=0;entryDy=0;exitX=0;exitY=0.5;exitDx=0;exitDy=0;" edge="1" parent="1" source="Pmv7R0sQW_mxrgGP7tfX-35" target="Pmv7R0sQW_mxrgGP7tfX-34">
          <mxGeometry width="100" height="100" relative="1" as="geometry">
            <mxPoint x="-130" y="280" as="sourcePoint" />
            <mxPoint x="-350" y="340" as="targetPoint" />
          </mxGeometry>
        </mxCell>
        <mxCell id="Pmv7R0sQW_mxrgGP7tfX-40" value="(1, 1)" style="edgeLabel;html=1;align=center;verticalAlign=middle;resizable=0;points=[];fontFamily=Helvetica;fontSize=11;fontColor=default;labelBackgroundColor=default;" vertex="1" connectable="0" parent="Pmv7R0sQW_mxrgGP7tfX-38">
          <mxGeometry x="0.0364" y="-1" relative="1" as="geometry">
            <mxPoint as="offset" />
          </mxGeometry>
        </mxCell>
        <mxCell id="Pmv7R0sQW_mxrgGP7tfX-45" style="edgeStyle=orthogonalEdgeStyle;shape=connector;rounded=0;orthogonalLoop=1;jettySize=auto;html=1;entryX=0.5;entryY=1;entryDx=0;entryDy=0;strokeColor=default;align=center;verticalAlign=middle;fontFamily=Helvetica;fontSize=11;fontColor=default;labelBackgroundColor=default;endArrow=none;endFill=0;" edge="1" parent="1" source="Pmv7R0sQW_mxrgGP7tfX-41" target="Pmv7R0sQW_mxrgGP7tfX-1">
          <mxGeometry relative="1" as="geometry" />
        </mxCell>
        <mxCell id="Pmv7R0sQW_mxrgGP7tfX-41" value="Codigo" style="ellipse;whiteSpace=wrap;html=1;align=center;fontStyle=4;fontFamily=Helvetica;fontSize=11;fontColor=default;labelBackgroundColor=default;" vertex="1" parent="1">
          <mxGeometry x="110" y="300" width="60" height="40" as="geometry" />
        </mxCell>
        <mxCell id="Pmv7R0sQW_mxrgGP7tfX-47" style="edgeStyle=orthogonalEdgeStyle;shape=connector;rounded=0;orthogonalLoop=1;jettySize=auto;html=1;entryX=0.5;entryY=0;entryDx=0;entryDy=0;strokeColor=default;align=center;verticalAlign=middle;fontFamily=Helvetica;fontSize=11;fontColor=default;labelBackgroundColor=default;endArrow=none;endFill=0;" edge="1" parent="1" source="Pmv7R0sQW_mxrgGP7tfX-42" target="Pmv7R0sQW_mxrgGP7tfX-1">
          <mxGeometry relative="1" as="geometry" />
        </mxCell>
        <mxCell id="Pmv7R0sQW_mxrgGP7tfX-42" value="Nome" style="ellipse;whiteSpace=wrap;html=1;align=center;fontFamily=Helvetica;fontSize=11;fontColor=default;labelBackgroundColor=default;" vertex="1" parent="1">
          <mxGeometry x="115" y="105" width="50" height="30" as="geometry" />
        </mxCell>
        <mxCell id="Pmv7R0sQW_mxrgGP7tfX-46" style="edgeStyle=orthogonalEdgeStyle;shape=connector;rounded=0;orthogonalLoop=1;jettySize=auto;html=1;entryX=0;entryY=0;entryDx=0;entryDy=0;strokeColor=default;align=center;verticalAlign=middle;fontFamily=Helvetica;fontSize=11;fontColor=default;labelBackgroundColor=default;endArrow=none;endFill=0;" edge="1" parent="1" source="Pmv7R0sQW_mxrgGP7tfX-43" target="Pmv7R0sQW_mxrgGP7tfX-1">
          <mxGeometry relative="1" as="geometry" />
        </mxCell>
        <mxCell id="Pmv7R0sQW_mxrgGP7tfX-43" value="CPF" style="ellipse;whiteSpace=wrap;html=1;align=center;fontFamily=Helvetica;fontSize=11;fontColor=default;labelBackgroundColor=default;" vertex="1" parent="1">
          <mxGeometry x="50" y="105" width="50" height="30" as="geometry" />
        </mxCell>
        <mxCell id="Pmv7R0sQW_mxrgGP7tfX-48" style="edgeStyle=orthogonalEdgeStyle;shape=connector;rounded=0;orthogonalLoop=1;jettySize=auto;html=1;entryX=1;entryY=0;entryDx=0;entryDy=0;strokeColor=default;align=center;verticalAlign=middle;fontFamily=Helvetica;fontSize=11;fontColor=default;labelBackgroundColor=default;endArrow=none;endFill=0;" edge="1" parent="1" source="Pmv7R0sQW_mxrgGP7tfX-44" target="Pmv7R0sQW_mxrgGP7tfX-1">
          <mxGeometry relative="1" as="geometry" />
        </mxCell>
        <mxCell id="Pmv7R0sQW_mxrgGP7tfX-44" value="Nascimento" style="ellipse;whiteSpace=wrap;html=1;align=center;fontFamily=Helvetica;fontSize=11;fontColor=default;labelBackgroundColor=default;" vertex="1" parent="1">
          <mxGeometry x="180" y="100" width="80" height="40" as="geometry" />
        </mxCell>
        <mxCell id="Pmv7R0sQW_mxrgGP7tfX-53" style="edgeStyle=orthogonalEdgeStyle;shape=connector;rounded=0;orthogonalLoop=1;jettySize=auto;html=1;entryX=0.25;entryY=0;entryDx=0;entryDy=0;strokeColor=default;align=center;verticalAlign=middle;fontFamily=Helvetica;fontSize=11;fontColor=default;labelBackgroundColor=default;endArrow=none;endFill=0;" edge="1" parent="1" source="Pmv7R0sQW_mxrgGP7tfX-50" target="Pmv7R0sQW_mxrgGP7tfX-2">
          <mxGeometry relative="1" as="geometry" />
        </mxCell>
        <mxCell id="Pmv7R0sQW_mxrgGP7tfX-50" value="Nome" style="ellipse;whiteSpace=wrap;html=1;align=center;fontFamily=Helvetica;fontSize=11;fontColor=default;labelBackgroundColor=default;" vertex="1" parent="1">
          <mxGeometry x="1070" y="130" width="60" height="30" as="geometry" />
        </mxCell>
        <mxCell id="Pmv7R0sQW_mxrgGP7tfX-55" style="edgeStyle=orthogonalEdgeStyle;shape=connector;rounded=0;orthogonalLoop=1;jettySize=auto;html=1;entryX=1;entryY=0.25;entryDx=0;entryDy=0;strokeColor=default;align=center;verticalAlign=middle;fontFamily=Helvetica;fontSize=11;fontColor=default;labelBackgroundColor=default;endArrow=none;endFill=0;" edge="1" parent="1" source="Pmv7R0sQW_mxrgGP7tfX-51" target="Pmv7R0sQW_mxrgGP7tfX-2">
          <mxGeometry relative="1" as="geometry" />
        </mxCell>
        <mxCell id="Pmv7R0sQW_mxrgGP7tfX-51" value="Clinica" style="ellipse;whiteSpace=wrap;html=1;align=center;fontFamily=Helvetica;fontSize=11;fontColor=default;labelBackgroundColor=default;" vertex="1" parent="1">
          <mxGeometry x="1241" y="170" width="60" height="30" as="geometry" />
        </mxCell>
        <mxCell id="Pmv7R0sQW_mxrgGP7tfX-54" style="edgeStyle=orthogonalEdgeStyle;shape=connector;rounded=0;orthogonalLoop=1;jettySize=auto;html=1;entryX=0.5;entryY=0;entryDx=0;entryDy=0;strokeColor=default;align=center;verticalAlign=middle;fontFamily=Helvetica;fontSize=11;fontColor=default;labelBackgroundColor=default;endArrow=none;endFill=0;" edge="1" parent="1" source="Pmv7R0sQW_mxrgGP7tfX-52" target="Pmv7R0sQW_mxrgGP7tfX-2">
          <mxGeometry relative="1" as="geometry" />
        </mxCell>
        <mxCell id="Pmv7R0sQW_mxrgGP7tfX-52" value="CRM" style="ellipse;whiteSpace=wrap;html=1;align=center;fontStyle=4;fontFamily=Helvetica;fontSize=11;fontColor=default;labelBackgroundColor=default;" vertex="1" parent="1">
          <mxGeometry x="1150" y="130" width="50" height="35" as="geometry" />
        </mxCell>
        <mxCell id="Pmv7R0sQW_mxrgGP7tfX-61" style="edgeStyle=orthogonalEdgeStyle;shape=connector;rounded=0;orthogonalLoop=1;jettySize=auto;html=1;entryX=0.5;entryY=0;entryDx=0;entryDy=0;strokeColor=default;align=center;verticalAlign=middle;fontFamily=Helvetica;fontSize=11;fontColor=default;labelBackgroundColor=default;endArrow=none;endFill=0;" edge="1" parent="1" source="Pmv7R0sQW_mxrgGP7tfX-57" target="Pmv7R0sQW_mxrgGP7tfX-4">
          <mxGeometry relative="1" as="geometry" />
        </mxCell>
        <mxCell id="Pmv7R0sQW_mxrgGP7tfX-57" value="Data" style="ellipse;whiteSpace=wrap;html=1;align=center;fontFamily=Helvetica;fontSize=11;fontColor=default;labelBackgroundColor=default;" vertex="1" parent="1">
          <mxGeometry x="620" y="140" width="40" height="30" as="geometry" />
        </mxCell>
        <mxCell id="Pmv7R0sQW_mxrgGP7tfX-63" style="edgeStyle=orthogonalEdgeStyle;shape=connector;rounded=0;orthogonalLoop=1;jettySize=auto;html=1;entryX=1;entryY=0;entryDx=0;entryDy=0;strokeColor=default;align=center;verticalAlign=middle;fontFamily=Helvetica;fontSize=11;fontColor=default;labelBackgroundColor=default;endArrow=none;endFill=0;" edge="1" parent="1" source="Pmv7R0sQW_mxrgGP7tfX-58" target="Pmv7R0sQW_mxrgGP7tfX-4">
          <mxGeometry relative="1" as="geometry" />
        </mxCell>
        <mxCell id="Pmv7R0sQW_mxrgGP7tfX-58" value="Hora" style="ellipse;whiteSpace=wrap;html=1;align=center;fontFamily=Helvetica;fontSize=11;fontColor=default;labelBackgroundColor=default;" vertex="1" parent="1">
          <mxGeometry x="660" y="165" width="40" height="30" as="geometry" />
        </mxCell>
        <mxCell id="Pmv7R0sQW_mxrgGP7tfX-60" style="edgeStyle=orthogonalEdgeStyle;shape=connector;rounded=0;orthogonalLoop=1;jettySize=auto;html=1;entryX=0.25;entryY=0;entryDx=0;entryDy=0;strokeColor=default;align=center;verticalAlign=middle;fontFamily=Helvetica;fontSize=11;fontColor=default;labelBackgroundColor=default;endArrow=none;endFill=0;exitX=0.5;exitY=1;exitDx=0;exitDy=0;" edge="1" parent="1" source="Pmv7R0sQW_mxrgGP7tfX-87" target="Pmv7R0sQW_mxrgGP7tfX-4">
          <mxGeometry relative="1" as="geometry">
            <mxPoint x="580" y="170" as="sourcePoint" />
          </mxGeometry>
        </mxCell>
        <mxCell id="Pmv7R0sQW_mxrgGP7tfX-68" style="edgeStyle=orthogonalEdgeStyle;shape=connector;rounded=0;orthogonalLoop=1;jettySize=auto;html=1;entryX=0.25;entryY=1;entryDx=0;entryDy=0;strokeColor=default;align=center;verticalAlign=middle;fontFamily=Helvetica;fontSize=11;fontColor=default;labelBackgroundColor=default;endArrow=none;endFill=0;" edge="1" parent="1" source="Pmv7R0sQW_mxrgGP7tfX-65" target="Pmv7R0sQW_mxrgGP7tfX-34">
          <mxGeometry relative="1" as="geometry" />
        </mxCell>
        <mxCell id="Pmv7R0sQW_mxrgGP7tfX-65" value="Codigo" style="ellipse;whiteSpace=wrap;html=1;align=center;fontStyle=4;fontFamily=Helvetica;fontSize=11;fontColor=default;labelBackgroundColor=default;" vertex="1" parent="1">
          <mxGeometry x="-380" y="290" width="60" height="40" as="geometry" />
        </mxCell>
        <mxCell id="Pmv7R0sQW_mxrgGP7tfX-69" style="edgeStyle=orthogonalEdgeStyle;shape=connector;rounded=0;orthogonalLoop=1;jettySize=auto;html=1;entryX=0.5;entryY=1;entryDx=0;entryDy=0;strokeColor=default;align=center;verticalAlign=middle;fontFamily=Helvetica;fontSize=11;fontColor=default;labelBackgroundColor=default;endArrow=none;endFill=0;" edge="1" parent="1" source="Pmv7R0sQW_mxrgGP7tfX-66" target="Pmv7R0sQW_mxrgGP7tfX-34">
          <mxGeometry relative="1" as="geometry" />
        </mxCell>
        <mxCell id="Pmv7R0sQW_mxrgGP7tfX-66" value="Nome" style="ellipse;whiteSpace=wrap;html=1;align=center;fontFamily=Helvetica;fontSize=11;fontColor=default;labelBackgroundColor=default;" vertex="1" parent="1">
          <mxGeometry x="-315" y="315" width="50" height="30" as="geometry" />
        </mxCell>
        <mxCell id="Pmv7R0sQW_mxrgGP7tfX-70" style="edgeStyle=orthogonalEdgeStyle;shape=connector;rounded=0;orthogonalLoop=1;jettySize=auto;html=1;entryX=0.75;entryY=1;entryDx=0;entryDy=0;strokeColor=default;align=center;verticalAlign=middle;fontFamily=Helvetica;fontSize=11;fontColor=default;labelBackgroundColor=default;endArrow=none;endFill=0;" edge="1" parent="1" source="Pmv7R0sQW_mxrgGP7tfX-67" target="Pmv7R0sQW_mxrgGP7tfX-34">
          <mxGeometry relative="1" as="geometry" />
        </mxCell>
        <mxCell id="Pmv7R0sQW_mxrgGP7tfX-67" value="CNPJ" style="ellipse;whiteSpace=wrap;html=1;align=center;fontFamily=Helvetica;fontSize=11;fontColor=default;labelBackgroundColor=default;" vertex="1" parent="1">
          <mxGeometry x="-265" y="285" width="50" height="30" as="geometry" />
        </mxCell>
        <mxCell id="Pmv7R0sQW_mxrgGP7tfX-76" style="edgeStyle=orthogonalEdgeStyle;shape=connector;rounded=0;orthogonalLoop=1;jettySize=auto;html=1;entryX=0;entryY=0;entryDx=0;entryDy=0;strokeColor=default;align=center;verticalAlign=middle;fontFamily=Helvetica;fontSize=11;fontColor=default;labelBackgroundColor=default;endArrow=none;endFill=0;" edge="1" parent="1" source="Pmv7R0sQW_mxrgGP7tfX-71" target="Pmv7R0sQW_mxrgGP7tfX-23">
          <mxGeometry relative="1" as="geometry" />
        </mxCell>
        <mxCell id="Pmv7R0sQW_mxrgGP7tfX-71" value="Nome" style="ellipse;whiteSpace=wrap;html=1;align=center;fontFamily=Helvetica;fontSize=11;fontColor=default;labelBackgroundColor=default;" vertex="1" parent="1">
          <mxGeometry x="1030" y="390" width="60" height="30" as="geometry" />
        </mxCell>
        <mxCell id="Pmv7R0sQW_mxrgGP7tfX-74" style="edgeStyle=orthogonalEdgeStyle;shape=connector;rounded=0;orthogonalLoop=1;jettySize=auto;html=1;entryX=0.5;entryY=0;entryDx=0;entryDy=0;strokeColor=default;align=center;verticalAlign=middle;fontFamily=Helvetica;fontSize=11;fontColor=default;labelBackgroundColor=default;endArrow=none;endFill=0;" edge="1" parent="1" source="Pmv7R0sQW_mxrgGP7tfX-72" target="Pmv7R0sQW_mxrgGP7tfX-23">
          <mxGeometry relative="1" as="geometry" />
        </mxCell>
        <mxCell id="Pmv7R0sQW_mxrgGP7tfX-72" value="CRM" style="ellipse;whiteSpace=wrap;html=1;align=center;fontStyle=4;fontFamily=Helvetica;fontSize=11;fontColor=default;labelBackgroundColor=default;" vertex="1" parent="1">
          <mxGeometry x="1095" y="410" width="50" height="35" as="geometry" />
        </mxCell>
        <mxCell id="Pmv7R0sQW_mxrgGP7tfX-75" style="edgeStyle=orthogonalEdgeStyle;shape=connector;rounded=0;orthogonalLoop=1;jettySize=auto;html=1;entryX=1;entryY=0;entryDx=0;entryDy=0;strokeColor=default;align=center;verticalAlign=middle;fontFamily=Helvetica;fontSize=11;fontColor=default;labelBackgroundColor=default;endArrow=none;endFill=0;" edge="1" parent="1" source="Pmv7R0sQW_mxrgGP7tfX-73" target="Pmv7R0sQW_mxrgGP7tfX-23">
          <mxGeometry relative="1" as="geometry" />
        </mxCell>
        <mxCell id="Pmv7R0sQW_mxrgGP7tfX-73" value="Clinica" style="ellipse;whiteSpace=wrap;html=1;align=center;fontFamily=Helvetica;fontSize=11;fontColor=default;labelBackgroundColor=default;" vertex="1" parent="1">
          <mxGeometry x="1150" y="430" width="60" height="30" as="geometry" />
        </mxCell>
        <mxCell id="Pmv7R0sQW_mxrgGP7tfX-83" style="edgeStyle=orthogonalEdgeStyle;shape=connector;rounded=0;orthogonalLoop=1;jettySize=auto;html=1;entryX=0.25;entryY=1;entryDx=0;entryDy=0;strokeColor=default;align=center;verticalAlign=middle;fontFamily=Helvetica;fontSize=11;fontColor=default;labelBackgroundColor=default;endArrow=none;endFill=0;" edge="1" parent="1" source="Pmv7R0sQW_mxrgGP7tfX-77" target="Pmv7R0sQW_mxrgGP7tfX-6">
          <mxGeometry relative="1" as="geometry" />
        </mxCell>
        <mxCell id="Pmv7R0sQW_mxrgGP7tfX-77" value="Codigo" style="ellipse;whiteSpace=wrap;html=1;align=center;fontStyle=4;fontFamily=Helvetica;fontSize=11;fontColor=default;labelBackgroundColor=default;" vertex="1" parent="1">
          <mxGeometry x="520" y="575" width="60" height="35" as="geometry" />
        </mxCell>
        <mxCell id="Pmv7R0sQW_mxrgGP7tfX-82" style="edgeStyle=orthogonalEdgeStyle;shape=connector;rounded=0;orthogonalLoop=1;jettySize=auto;html=1;entryX=0.5;entryY=1;entryDx=0;entryDy=0;strokeColor=default;align=center;verticalAlign=middle;fontFamily=Helvetica;fontSize=11;fontColor=default;labelBackgroundColor=default;endArrow=none;endFill=0;" edge="1" parent="1" source="Pmv7R0sQW_mxrgGP7tfX-79" target="Pmv7R0sQW_mxrgGP7tfX-6">
          <mxGeometry relative="1" as="geometry" />
        </mxCell>
        <mxCell id="Pmv7R0sQW_mxrgGP7tfX-79" value="Data" style="ellipse;whiteSpace=wrap;html=1;align=center;fontFamily=Helvetica;fontSize=11;fontColor=default;labelBackgroundColor=default;" vertex="1" parent="1">
          <mxGeometry x="580" y="602" width="40" height="30" as="geometry" />
        </mxCell>
        <mxCell id="Pmv7R0sQW_mxrgGP7tfX-81" style="edgeStyle=orthogonalEdgeStyle;shape=connector;rounded=0;orthogonalLoop=1;jettySize=auto;html=1;entryX=0.75;entryY=1;entryDx=0;entryDy=0;strokeColor=default;align=center;verticalAlign=middle;fontFamily=Helvetica;fontSize=11;fontColor=default;labelBackgroundColor=default;endArrow=none;endFill=0;" edge="1" parent="1" source="Pmv7R0sQW_mxrgGP7tfX-80" target="Pmv7R0sQW_mxrgGP7tfX-6">
          <mxGeometry relative="1" as="geometry" />
        </mxCell>
        <mxCell id="Pmv7R0sQW_mxrgGP7tfX-80" value="Texto" style="ellipse;whiteSpace=wrap;html=1;align=center;fontFamily=Helvetica;fontSize=11;fontColor=default;labelBackgroundColor=default;" vertex="1" parent="1">
          <mxGeometry x="630" y="577.5" width="50" height="30" as="geometry" />
        </mxCell>
        <mxCell id="Pmv7R0sQW_mxrgGP7tfX-84" value="&lt;b&gt;PACIENTE &lt;/b&gt;(&lt;u&gt;PacienteCod&lt;/u&gt;, PacienteCPF, PacienteNome, PacienteNasc,&amp;nbsp;ConvCod)" style="text;html=1;align=center;verticalAlign=middle;resizable=0;points=[];autosize=1;strokeColor=none;fillColor=none;fontFamily=Helvetica;fontSize=11;fontColor=default;labelBackgroundColor=default;" vertex="1" parent="1">
          <mxGeometry x="-350" y="400" width="430" height="30" as="geometry" />
        </mxCell>
        <mxCell id="Pmv7R0sQW_mxrgGP7tfX-85" value="&lt;b&gt;CONVENIO &lt;/b&gt;(&lt;u&gt;ConvCod&lt;/u&gt;, ConvNome, ConvCNPJ)" style="text;html=1;align=center;verticalAlign=middle;resizable=0;points=[];autosize=1;strokeColor=none;fillColor=none;fontFamily=Helvetica;fontSize=11;fontColor=default;labelBackgroundColor=default;" vertex="1" parent="1">
          <mxGeometry x="-350" y="380" width="260" height="30" as="geometry" />
        </mxCell>
        <mxCell id="Pmv7R0sQW_mxrgGP7tfX-86" value="&lt;b&gt;EXAME &lt;/b&gt;(&lt;u&gt;ExameNum&lt;/u&gt;, ExameData, ExameHora,&amp;nbsp;ConvCod,&amp;nbsp;LaudoCod)&amp;nbsp;" style="text;html=1;align=center;verticalAlign=middle;resizable=0;points=[];autosize=1;strokeColor=none;fillColor=none;fontFamily=Helvetica;fontSize=11;fontColor=default;labelBackgroundColor=default;" vertex="1" parent="1">
          <mxGeometry x="-350" y="420" width="370" height="30" as="geometry" />
        </mxCell>
        <mxCell id="Pmv7R0sQW_mxrgGP7tfX-87" value="Numero" style="ellipse;whiteSpace=wrap;html=1;align=center;fontStyle=4;fontFamily=Helvetica;fontSize=11;fontColor=default;labelBackgroundColor=default;" vertex="1" parent="1">
          <mxGeometry x="540" y="125" width="60" height="40" as="geometry" />
        </mxCell>
        <mxCell id="Pmv7R0sQW_mxrgGP7tfX-88" value="&lt;b&gt;MEDICO &lt;/b&gt;(&lt;u&gt;MedCRM&lt;/u&gt;, MedNome, MedClinica)" style="text;html=1;align=center;verticalAlign=middle;resizable=0;points=[];autosize=1;strokeColor=none;fillColor=none;fontFamily=Helvetica;fontSize=11;fontColor=default;labelBackgroundColor=default;" vertex="1" parent="1">
          <mxGeometry x="-350" y="460" width="240" height="30" as="geometry" />
        </mxCell>
        <mxCell id="Pmv7R0sQW_mxrgGP7tfX-89" value="&lt;b&gt;RADIOLOGISTA &lt;/b&gt;(&lt;u&gt;RadioCRM&lt;/u&gt;, RadioNome, RadioClinica)" style="text;html=1;align=center;verticalAlign=middle;resizable=0;points=[];autosize=1;strokeColor=none;fillColor=none;fontFamily=Helvetica;fontSize=11;fontColor=default;labelBackgroundColor=default;" vertex="1" parent="1">
          <mxGeometry x="-350" y="480" width="300" height="30" as="geometry" />
        </mxCell>
        <mxCell id="Pmv7R0sQW_mxrgGP7tfX-91" value="&lt;b&gt;LAUDO &lt;/b&gt;(&lt;u&gt;LaudoCod&lt;/u&gt;, LaudoData, LaudoTexto)" style="text;html=1;align=center;verticalAlign=middle;resizable=0;points=[];autosize=1;strokeColor=none;fillColor=none;fontFamily=Helvetica;fontSize=11;fontColor=default;labelBackgroundColor=default;" vertex="1" parent="1">
          <mxGeometry x="-350" y="440" width="250" height="30" as="geometry" />
        </mxCell>
      </root>
    </mxGraphModel>
  </diagram>
</mxfile>
